<svg width="140" height="85" viewBox="0 0 140 85" fill="none" xmlns="http://www.w3.org/2000/svg">
<rect width="139.552" height="84.1269" rx="24" fill="black"/>
<path d="M43.47 64.385H52.71L57.4 77.16L61.635 64.385H70.98V67.92H68.005V81.465H70.98V85H61.705V81.465H63.945V67.255L62.545 71.945L58.835 82.515H55.86L51.59 71.525L50.19 67.5L50.155 81.465H52.465V85H43.435V81.465H46.41V67.92H43.47V64.385ZM93.3849 81.465V85H87.3999L83.5849 77.93H80.8549V81.465H82.6749V85H73.8549V81.465H76.7949V67.92H73.8549V64.385H83.1299C86.1633 64.385 88.2749 64.9567 89.4649 66.1C90.6783 67.22 91.2849 68.9 91.2849 71.14C91.2849 74.4533 90.0016 76.5533 87.4349 77.44L89.8849 81.465H93.3849ZM82.9549 74.43C84.4716 74.43 85.5333 74.1967 86.1399 73.73C86.7699 73.2633 87.0849 72.4117 87.0849 71.175C87.0849 69.9383 86.7466 69.0867 86.0699 68.62C85.4166 68.1533 84.3783 67.92 82.9549 67.92H80.8899V74.43H82.9549Z" fill="white"/>
</svg>
