<svg width="10" height="15" viewBox="0 0 10 15" fill="none" xmlns="http://www.w3.org/2000/svg">
<path d="M2.72898 13.3108C2.72926 13.4951 2.7821 13.6755 2.88125 13.829L3.36676 14.5816C3.4497 14.7103 3.56219 14.8158 3.69424 14.8888C3.82628 14.9618 3.97377 15 4.12358 15H5.8767C6.02652 15 6.17401 14.9618 6.30605 14.8888C6.43809 14.8158 6.55058 14.7103 6.63352 14.5816L7.11903 13.829C7.21814 13.6755 7.27111 13.4952 7.27131 13.3108L7.27244 12.1873H2.72756L2.72898 13.3108ZM0 5.15617C0 6.45604 0.46733 7.64195 1.2375 8.54809C1.70682 9.10032 2.44091 10.254 2.72074 11.2272C2.72187 11.2348 2.72273 11.2425 2.72386 11.2501H7.27614C7.27727 11.2425 7.27813 11.2351 7.27926 11.2272C7.55909 10.254 8.29318 9.10032 8.7625 8.54809C9.53267 7.64195 10 6.45604 10 5.15617C10 2.303 7.75313 -0.0087639 4.98438 2.49773e-05C2.08636 0.00910682 0 2.43074 0 5.15617ZM5 2.81247C3.74688 2.81247 2.72727 3.86391 2.72727 5.15617C2.72727 5.41514 2.52386 5.62491 2.27273 5.62491C2.02159 5.62491 1.81818 5.41514 1.81818 5.15617C1.81818 3.34683 3.24545 1.87499 5 1.87499C5.25114 1.87499 5.45455 2.08475 5.45455 2.34373C5.45455 2.6027 5.25114 2.81247 5 2.81247Z" fill="black"/>
</svg>
