<svg width="140" height="85" viewBox="0 0 140 85" fill="none" xmlns="http://www.w3.org/2000/svg">
<rect width="139.552" height="84.1269" rx="24" fill="black"/>
<path d="M43.47 57.385H52.71L57.4 70.16L61.635 57.385H70.98V60.92H68.005V74.465H70.98V78H61.705V74.465H63.945V60.255L62.545 64.945L58.835 75.515H55.86L51.59 64.525L50.19 60.5L50.155 74.465H52.465V78H43.435V74.465H46.41V60.92H43.47V57.385ZM93.3849 74.465V78H87.3999L83.5849 70.93H80.8549V74.465H82.6749V78H73.8549V74.465H76.7949V60.92H73.8549V57.385H83.1299C86.1633 57.385 88.2749 57.9567 89.4649 59.1C90.6783 60.22 91.2849 61.9 91.2849 64.14C91.2849 67.4533 90.0016 69.5533 87.4349 70.44L89.8849 74.465H93.3849ZM82.9549 67.43C84.4716 67.43 85.5333 67.1967 86.1399 66.73C86.7699 66.2633 87.0849 65.4117 87.0849 64.175C87.0849 62.9383 86.7466 62.0867 86.0699 61.62C85.4166 61.1533 84.3783 60.92 82.9549 60.92H80.8899V67.43H82.9549Z" fill="white"/>
</svg>
